<svg width="21" height="32" viewBox="0 0 21 32" fill="none" xmlns="http://www.w3.org/2000/svg">
<path fill-rule="evenodd" clip-rule="evenodd" d="M9.41188 32L7.63045 30.1817V0.890718C7.63227 0.655049 7.7267 0.429551 7.89335 0.262903C8.06 0.0962554 8.2855 0.00182596 8.52116 0C8.75683 0.00182596 8.98233 0.0962554 9.14898 0.262903C9.31563 0.429551 9.41006 0.655049 9.41188 0.890718V32ZM5.59666 28.11L4.98024 27.4806L3.81522 26.2906V7.71423C3.81705 7.47856 3.91148 7.25307 4.07813 7.08642C4.24477 6.91977 4.47027 6.82534 4.70594 6.82351C4.94161 6.82534 5.16711 6.91977 5.33376 7.08642C5.5004 7.25307 5.59483 7.47856 5.59666 7.71423V28.108V28.11ZM1.78144 24.2199L0 22.3986V14.4629C0.00182596 14.2273 0.0962554 14.0018 0.262903 13.8351C0.429551 13.6685 0.655049 13.574 0.890718 13.5722C1.12639 13.574 1.35188 13.6685 1.51853 13.8351C1.68518 14.0018 1.77961 14.2273 1.78144 14.4629V24.2199Z" fill="#00ACB0"/>
<path fill-rule="evenodd" clip-rule="evenodd" d="M12.3364 0C12.5721 0.00182596 12.7976 0.0962554 12.9642 0.262903C13.1309 0.429551 13.2253 0.655049 13.2271 0.890718V30.1817L11.4457 32V0.890718C11.4475 0.655049 11.5419 0.429551 11.7086 0.262903C11.8752 0.0962554 12.1007 0.00182596 12.3364 0ZM20.8576 22.3986L19.0751 24.2169V14.4629C19.077 14.2273 19.1714 14.0018 19.338 13.8351C19.5047 13.6685 19.7302 13.574 19.9658 13.5722C20.2017 13.5738 20.4274 13.6681 20.5943 13.8348C20.7612 14.0015 20.8557 14.2271 20.8576 14.4629V22.3976V22.3986ZM17.0423 26.2886L15.8773 27.4766L15.2609 28.108V7.71423C15.2627 7.47839 15.3573 7.25275 15.5242 7.08607C15.691 6.91939 15.9168 6.82508 16.1526 6.82351C16.3883 6.82534 16.6138 6.91977 16.7804 7.08642C16.9471 7.25307 17.0415 7.47856 17.0433 7.71423L17.0423 26.2886Z" fill="#257D7B"/>
</svg>
