<svg width="183" height="280" viewBox="0 0 183 280" fill="none" xmlns="http://www.w3.org/2000/svg">
<path fill-rule="evenodd" clip-rule="evenodd" d="M82.354 280L66.7664 264.09V7.79378C66.7824 5.73168 67.6086 3.75857 69.0668 2.3004C70.525 0.842235 72.4981 0.0159771 74.5602 0C76.6223 0.0159771 78.5954 0.842235 80.0536 2.3004C81.5117 3.75857 82.338 5.73168 82.354 7.79378V280ZM48.9708 245.962L43.5771 240.455L33.3832 230.043V67.4995C33.3992 65.4374 34.2254 63.4643 35.6836 62.0062C37.1418 60.548 39.1149 59.7217 41.177 59.7058C43.2391 59.7217 45.2122 60.548 46.6704 62.0062C48.1285 63.4643 48.9548 65.4374 48.9708 67.4995V245.945V245.962ZM15.5876 211.924L0 195.988V126.551C0.0159771 124.489 0.842235 122.515 2.3004 121.057C3.75857 119.599 5.73168 118.773 7.79378 118.757C9.85588 118.773 11.829 119.599 13.2872 121.057C14.7453 122.515 15.5716 124.489 15.5876 126.551V211.924Z" fill="#00ACB0"/>
<path fill-rule="evenodd" clip-rule="evenodd" d="M107.943 0C110.006 0.0159771 111.979 0.842235 113.437 2.3004C114.895 3.75857 115.721 5.73168 115.737 7.79378V264.09L100.15 280V7.79378C100.166 5.73168 100.992 3.75857 102.45 2.3004C103.908 0.842235 105.881 0.0159771 107.943 0ZM182.504 195.988L166.907 211.898V126.551C166.923 124.489 167.75 122.515 169.208 121.057C170.666 119.599 172.639 118.773 174.701 118.757C176.765 118.771 178.74 119.596 180.2 121.054C181.66 122.513 182.488 124.487 182.504 126.551V195.979V195.988ZM149.12 230.026L138.927 240.42L133.533 245.945V67.4995C133.549 65.4359 134.376 63.4615 135.836 62.0031C137.296 60.5447 139.272 59.7195 141.335 59.7058C143.397 59.7217 145.371 60.548 146.829 62.0062C148.287 63.4643 149.113 65.4374 149.129 67.4995L149.12 230.026Z" fill="#257D7B"/>
</svg>
