<svg width="60" height="91" viewBox="0 0 60 91" fill="none" xmlns="http://www.w3.org/2000/svg">
<path fill-rule="evenodd" clip-rule="evenodd" d="M27.1261 90.4371L22.0915 85.2982V2.51731C22.0966 1.85127 22.3635 1.21398 22.8345 0.743006C23.3054 0.272033 23.9427 0.00516045 24.6088 0C25.2748 0.00516045 25.9121 0.272033 26.3831 0.743006C26.8541 1.21398 27.1209 1.85127 27.1261 2.51731V90.4371ZM16.3437 79.4432L14.6016 77.6645L11.309 74.3015V21.8016C11.3142 21.1356 11.5811 20.4983 12.052 20.0273C12.523 19.5564 13.1603 19.2895 13.8263 19.2843C14.4924 19.2895 15.1297 19.5564 15.6007 20.0273C16.0716 20.4983 16.3385 21.1356 16.3437 21.8016V79.4376V79.4432ZM5.56123 68.4494L0.526611 63.302V40.8746C0.531772 40.2085 0.798644 39.5712 1.26962 39.1003C1.74059 38.6293 2.37788 38.3624 3.04392 38.3573C3.70996 38.3624 4.34725 38.6293 4.81822 39.1003C5.2892 39.5712 5.55607 40.2085 5.56123 40.8746V68.4494Z" fill="#00ACB0"/>
<path fill-rule="evenodd" clip-rule="evenodd" d="M35.3912 0C36.0573 0.00516045 36.6946 0.272033 37.1655 0.743006C37.6365 1.21398 37.9034 1.85127 37.9085 2.51731V85.2982L32.8739 90.4371V2.51731C32.8791 1.85127 33.146 1.21398 33.6169 0.743006C34.0879 0.272033 34.7252 0.00516045 35.3912 0ZM59.4734 63.302L54.436 68.4409V40.8746C54.4411 40.2085 54.708 39.5712 55.179 39.1003C55.6499 38.6293 56.2872 38.3624 56.9533 38.3573C57.6198 38.3617 58.2578 38.6282 58.7294 39.0993C59.201 39.5703 59.4682 40.208 59.4734 40.8746V63.2992V63.302ZM48.691 74.2959L45.3984 77.6532L43.6563 79.4376V21.8016C43.6615 21.1351 43.9288 20.4974 44.4004 20.0264C44.8719 19.5553 45.51 19.2888 46.1765 19.2843C46.8425 19.2895 47.4798 19.5564 47.9508 20.0273C48.4218 20.4983 48.6886 21.1356 48.6938 21.8016L48.691 74.2959Z" fill="#257D7B"/>
</svg>
