<svg width="29" height="42" viewBox="0 0 29 42" fill="none" xmlns="http://www.w3.org/2000/svg">
<path fill-rule="evenodd" clip-rule="evenodd" d="M13.1761 42L10.838 39.6134V1.16907C10.8404 0.859752 10.9643 0.563786 11.183 0.34506C11.4018 0.126335 11.6977 0.00239657 12.0071 0C12.3164 0.00239657 12.6123 0.126335 12.8311 0.34506C13.0498 0.563786 13.1737 0.859752 13.1761 1.16907V42ZM8.16864 36.8943L7.35959 36.0683L5.83051 34.5064V10.1249C5.83291 9.81561 5.95684 9.51965 6.17557 9.30092C6.39429 9.0822 6.69026 8.95826 6.99958 8.95586C7.30889 8.95826 7.60486 9.0822 7.82358 9.30092C8.04231 9.51965 8.16625 9.81561 8.16864 10.1249V36.8917V36.8943ZM3.16116 31.7887L0.823029 29.3982V18.9826C0.825425 18.6733 0.949364 18.3773 1.16809 18.1586C1.38681 17.9399 1.68278 17.8159 1.9921 17.8135C2.30141 17.8159 2.59738 17.9399 2.8161 18.1586C3.03483 18.3773 3.15877 18.6733 3.16116 18.9826V31.7887Z" fill="#00ACB0"/>
<path fill-rule="evenodd" clip-rule="evenodd" d="M17.0145 0C17.3238 0.00239657 17.6198 0.126335 17.8385 0.34506C18.0573 0.563786 18.1812 0.859752 18.1836 1.16907V39.6134L15.8455 42V1.16907C15.8479 0.859752 15.9718 0.563786 16.1905 0.34506C16.4092 0.126335 16.7052 0.00239657 17.0145 0ZM28.1986 29.3982L25.8591 31.7847V18.9826C25.8615 18.6733 25.9854 18.3773 26.2042 18.1586C26.4229 17.9399 26.7189 17.8159 27.0282 17.8135C27.3377 17.8156 27.634 17.9394 27.853 18.1581C28.072 18.3769 28.1962 18.6731 28.1986 18.9826V29.3969V29.3982ZM23.1911 34.5038L21.662 36.063L20.8529 36.8917V10.1249C20.8553 9.81539 20.9795 9.51923 21.1985 9.30047C21.4175 9.0817 21.7138 8.95792 22.0233 8.95586C22.3326 8.95826 22.6286 9.0822 22.8473 9.30092C23.066 9.51965 23.19 9.81561 23.1924 10.1249L23.1911 34.5038Z" fill="#257D7B"/>
</svg>
