<svg width="30" height="31" viewBox="0 0 30 31" fill="none" xmlns="http://www.w3.org/2000/svg">
<path d="M15.6448 12.9998V18.7404H23.6223C23.272 20.5866 22.2208 22.1498 20.6442 23.2009L25.455 26.9337C28.2579 24.3464 29.875 20.5463 29.875 16.0319C29.875 14.9808 29.7807 13.9701 29.6055 12.9999L15.6448 12.9998Z" fill="#4285F4"/>
<path d="M7.33738 18.5163L6.25237 19.3469L2.41174 22.3384C4.85083 27.1761 9.84993 30.5182 15.6444 30.5182C19.6466 30.5182 23.002 29.1975 25.4546 26.9337L20.6438 23.2009C19.3232 24.0903 17.6387 24.6294 15.6444 24.6294C11.7904 24.6294 8.51591 22.0286 7.34344 18.5249L7.33738 18.5163Z" fill="#34A853"/>
<path d="M2.41179 9.05143C1.40117 11.0457 0.821777 13.2962 0.821777 15.6948C0.821777 18.0935 1.40117 20.3439 2.41179 22.3383C2.41179 22.3516 7.34397 18.5112 7.34397 18.5112C7.0475 17.6218 6.87227 16.6785 6.87227 15.6947C6.87227 14.7108 7.0475 13.7676 7.34397 12.8782L2.41179 9.05143Z" fill="#FBBC05"/>
<path d="M15.6447 6.77404C17.8278 6.77404 19.7683 7.52866 21.318 8.98405L25.5628 4.73927C22.9889 2.34064 19.6471 0.871704 15.6447 0.871704C9.85024 0.871704 4.85083 4.20019 2.41174 9.05144L7.34377 12.8785C8.51608 9.37482 11.7907 6.77404 15.6447 6.77404Z" fill="#EA4335"/>
</svg>
