<svg width="134" height="38" viewBox="0 0 134 38" fill="none" xmlns="http://www.w3.org/2000/svg">
<path fill-rule="evenodd" clip-rule="evenodd" d="M9.41188 37L7.63045 35.1817V5.89072C7.63227 5.65505 7.7267 5.42955 7.89335 5.2629C8.06 5.09626 8.2855 5.00183 8.52116 5C8.75683 5.00183 8.98233 5.09626 9.14898 5.2629C9.31563 5.42955 9.41006 5.65505 9.41188 5.89072V37ZM5.59666 33.11L4.98024 32.4806L3.81522 31.2906V12.7142C3.81705 12.4786 3.91148 12.2531 4.07813 12.0864C4.24477 11.9198 4.47027 11.8253 4.70594 11.8235C4.94161 11.8253 5.16711 11.9198 5.33376 12.0864C5.5004 12.2531 5.59483 12.4786 5.59666 12.7142V33.108V33.11ZM1.78144 29.2199L0 27.3986V19.4629C0.00182596 19.2273 0.0962554 19.0018 0.262903 18.8351C0.429551 18.6685 0.655049 18.574 0.890718 18.5722C1.12639 18.574 1.35188 18.6685 1.51853 18.8351C1.68518 19.0018 1.77961 19.2273 1.78144 19.4629V29.2199Z" fill="#00ACB0"/>
<path fill-rule="evenodd" clip-rule="evenodd" d="M12.3364 5C12.5721 5.00183 12.7976 5.09626 12.9642 5.2629C13.1309 5.42955 13.2253 5.65505 13.2271 5.89072V35.1817L11.4457 37V5.89072C11.4475 5.65505 11.5419 5.42955 11.7086 5.2629C11.8752 5.09626 12.1007 5.00183 12.3364 5ZM20.8576 27.3986L19.0751 29.2169V19.4629C19.077 19.2273 19.1714 19.0018 19.338 18.8351C19.5047 18.6685 19.7302 18.574 19.9658 18.5722C20.2017 18.5738 20.4274 18.6681 20.5943 18.8348C20.7612 19.0015 20.8557 19.2271 20.8576 19.4629V27.3976V27.3986ZM17.0423 31.2886L15.8773 32.4766L15.2609 33.108V12.7142C15.2627 12.4784 15.3573 12.2527 15.5242 12.0861C15.691 11.9194 15.9168 11.8251 16.1526 11.8235C16.3883 11.8253 16.6138 11.9198 16.7804 12.0864C16.9471 12.2531 17.0415 12.4786 17.0433 12.7142L17.0423 31.2886Z" fill="#257D7B"/>
<path d="M34.2958 14.4091H36.6928L40.8604 24.5852H41.0138L45.1814 14.4091H47.5784V27.5H45.6992V18.027H45.5777L41.7169 27.4808H40.1573L36.2965 18.0206H36.175V27.5H34.2958V14.4091ZM50.9647 31.1818C50.6792 31.1818 50.4193 31.1584 50.1849 31.1115C49.9505 31.0689 49.7758 31.022 49.6608 30.9709L50.121 29.4048C50.4704 29.4986 50.7815 29.5391 51.0542 29.5263C51.327 29.5135 51.5677 29.4112 51.7765 29.2195C51.9896 29.0277 52.1771 28.7145 52.339 28.2798L52.5755 27.6278L48.9832 17.6818H51.0287L53.5152 25.3011H53.6174L56.1039 17.6818H58.1558L54.1096 28.8104C53.9221 29.3217 53.6835 29.7543 53.3937 30.108C53.1039 30.4659 52.7588 30.7344 52.3582 30.9134C51.9576 31.0923 51.4931 31.1818 50.9647 31.1818ZM63.789 27.5V14.4091H71.9069V16.1094H65.7642V20.098H71.3253V21.7919H65.7642V27.5H63.789ZM73.6425 27.5V17.6818H75.5537V27.5H73.6425ZM74.6077 16.1669C74.2753 16.1669 73.9898 16.0561 73.7512 15.8345C73.5168 15.6087 73.3996 15.3402 73.3996 15.0291C73.3996 14.7138 73.5168 14.4453 73.7512 14.2237C73.9898 13.9979 74.2753 13.8849 74.6077 13.8849C74.9401 13.8849 75.2235 13.9979 75.4578 14.2237C75.6965 14.4453 75.8158 14.7138 75.8158 15.0291C75.8158 15.3402 75.6965 15.6087 75.4578 15.8345C75.2235 16.0561 74.9401 16.1669 74.6077 16.1669ZM79.4961 21.6705V27.5H77.5849V17.6818H79.4194V19.2798H79.5409C79.7667 18.7599 80.1204 18.3423 80.602 18.027C81.0878 17.7116 81.6993 17.554 82.4365 17.554C83.1055 17.554 83.6915 17.6946 84.1943 17.9759C84.6971 18.2528 85.0871 18.6662 85.364 19.2159C85.641 19.7656 85.7795 20.4453 85.7795 21.255V27.5H83.8683V21.4851C83.8683 20.7734 83.6829 20.2173 83.3122 19.8168C82.9415 19.4119 82.4322 19.2095 81.7845 19.2095C81.3413 19.2095 80.9471 19.3054 80.602 19.4972C80.2611 19.6889 79.9905 19.9702 79.7902 20.3409C79.5942 20.7074 79.4961 21.1506 79.4961 21.6705ZM90.66 27.7173C90.0378 27.7173 89.4753 27.6023 88.9725 27.3722C88.4696 27.1378 88.0712 26.799 87.7772 26.3558C87.4874 25.9126 87.3425 25.3693 87.3425 24.7259C87.3425 24.1719 87.449 23.7159 87.6621 23.358C87.8752 23 88.1628 22.7166 88.525 22.5078C88.8873 22.299 89.2921 22.1413 89.7395 22.0348C90.187 21.9283 90.6429 21.8473 91.1074 21.7919C91.6955 21.7237 92.1728 21.6683 92.5392 21.6257C92.9057 21.5788 93.1721 21.5043 93.3382 21.402C93.5044 21.2997 93.5875 21.1335 93.5875 20.9034V20.8587C93.5875 20.3004 93.4299 19.8679 93.1145 19.5611C92.8034 19.2543 92.339 19.1009 91.7211 19.1009C91.0776 19.1009 90.5705 19.2436 90.1998 19.5291C89.8333 19.8104 89.5797 20.1236 89.4391 20.4688L87.6429 20.0597C87.856 19.4631 88.1671 18.9815 88.5762 18.6151C88.9895 18.2443 89.4647 17.9759 90.0016 17.8097C90.5385 17.6392 91.1032 17.554 91.6955 17.554C92.0875 17.554 92.503 17.6009 92.9419 17.6946C93.3851 17.7841 93.7985 17.9503 94.182 18.1932C94.5698 18.4361 94.8873 18.7834 95.1344 19.2351C95.3816 19.6825 95.5051 20.2642 95.5051 20.9801V27.5H93.6387V26.1577H93.562C93.4384 26.4048 93.253 26.6477 93.0059 26.8864C92.7587 27.125 92.4412 27.3232 92.0534 27.4808C91.6657 27.6385 91.2012 27.7173 90.66 27.7173ZM91.0755 26.1832C91.6039 26.1832 92.0556 26.0788 92.4306 25.87C92.8098 25.6612 93.0975 25.3885 93.2935 25.0518C93.4938 24.7109 93.5939 24.3466 93.5939 23.9588V22.6932C93.5257 22.7614 93.3936 22.8253 93.1976 22.8849C93.0059 22.9403 92.7864 22.9893 92.5392 23.032C92.2921 23.0703 92.0513 23.1065 91.8169 23.1406C91.5826 23.1705 91.3865 23.196 91.2289 23.2173C90.8581 23.2642 90.5194 23.343 90.2125 23.4538C89.91 23.5646 89.6671 23.7244 89.4838 23.9332C89.3049 24.1378 89.2154 24.4105 89.2154 24.7514C89.2154 25.2244 89.3901 25.5824 89.7395 25.8253C90.089 26.0639 90.5343 26.1832 91.0755 26.1832ZM99.422 21.6705V27.5H97.5108V17.6818H99.3453V19.2798H99.4667C99.6926 18.7599 100.046 18.3423 100.528 18.027C101.014 17.7116 101.625 17.554 102.362 17.554C103.031 17.554 103.617 17.6946 104.12 17.9759C104.623 18.2528 105.013 18.6662 105.29 19.2159C105.567 19.7656 105.705 20.4453 105.705 21.255V27.5H103.794V21.4851C103.794 20.7734 103.609 20.2173 103.238 19.8168C102.867 19.4119 102.358 19.2095 101.71 19.2095C101.267 19.2095 100.873 19.3054 100.528 19.4972C100.187 19.6889 99.9163 19.9702 99.716 20.3409C99.52 20.7074 99.422 21.1506 99.422 21.6705ZM111.864 27.6982C110.914 27.6982 110.096 27.483 109.41 27.0526C108.728 26.6179 108.204 26.0192 107.837 25.2564C107.471 24.4936 107.288 23.62 107.288 22.6357C107.288 21.6385 107.475 20.7585 107.85 19.9957C108.225 19.2287 108.753 18.63 109.435 18.1996C110.117 17.7692 110.92 17.554 111.845 17.554C112.591 17.554 113.256 17.6925 113.839 17.9695C114.423 18.2422 114.894 18.6257 115.252 19.12C115.614 19.6143 115.829 20.1918 115.898 20.8523H114.038C113.935 20.392 113.701 19.9957 113.334 19.6634C112.972 19.331 112.486 19.1648 111.877 19.1648C111.344 19.1648 110.878 19.3054 110.477 19.5866C110.081 19.8636 109.772 20.2599 109.55 20.7756C109.329 21.2869 109.218 21.892 109.218 22.5909C109.218 23.3068 109.327 23.9247 109.544 24.4446C109.761 24.9645 110.068 25.3672 110.464 25.6527C110.865 25.9382 111.336 26.081 111.877 26.081C112.239 26.081 112.567 26.0149 112.861 25.8828C113.16 25.7464 113.409 25.5526 113.609 25.3011C113.814 25.0497 113.957 24.7472 114.038 24.3935H115.898C115.829 25.0284 115.623 25.5952 115.278 26.0938C114.932 26.5923 114.47 26.9844 113.891 27.2699C113.315 27.5554 112.64 27.6982 111.864 27.6982ZM121.633 27.6982C120.666 27.6982 119.833 27.4915 119.134 27.0781C118.439 26.6605 117.902 26.0746 117.523 25.3203C117.148 24.5618 116.96 23.6733 116.96 22.6548C116.96 21.6491 117.148 20.7628 117.523 19.9957C117.902 19.2287 118.431 18.63 119.108 18.1996C119.79 17.7692 120.587 17.554 121.499 17.554C122.053 17.554 122.59 17.6456 123.11 17.8288C123.629 18.0121 124.096 18.2997 124.509 18.6918C124.923 19.0838 125.249 19.593 125.487 20.2195C125.726 20.8416 125.845 21.598 125.845 22.4886V23.1662H118.041V21.7344H123.973C123.973 21.2315 123.87 20.7862 123.666 20.3984C123.461 20.0064 123.174 19.6974 122.803 19.4716C122.436 19.2457 122.006 19.1328 121.512 19.1328C120.975 19.1328 120.506 19.2649 120.105 19.5291C119.709 19.7891 119.402 20.13 119.185 20.5518C118.972 20.9695 118.865 21.4233 118.865 21.9134V23.032C118.865 23.6882 118.98 24.2464 119.21 24.7067C119.445 25.1669 119.771 25.5185 120.188 25.7614C120.606 26 121.094 26.1193 121.652 26.1193C122.014 26.1193 122.345 26.0682 122.643 25.9659C122.941 25.8594 123.199 25.7017 123.416 25.4929C123.634 25.2841 123.8 25.0263 123.915 24.7195L125.724 25.0455C125.579 25.5781 125.319 26.0447 124.944 26.4453C124.573 26.8416 124.107 27.1506 123.544 27.3722C122.986 27.5895 122.349 27.6982 121.633 27.6982Z" fill="white"/>
</svg>
